<svg width="1024" height="753" viewBox="0 0 1024 753" fill="none" xmlns="http://www.w3.org/2000/svg">
<g opacity="0.2" filter="url(#filter0_f_175_198)">
<ellipse cx="670.5" cy="170" rx="670.5" ry="350" fill="#35875D"/>
</g>
<path d="M191.035 406C192.53 406 193.662 406.63 194.431 407.891C195.213 409.138 195.605 410.953 195.605 413.336C195.605 415.719 195.213 417.541 194.431 418.802C193.662 420.063 192.53 420.693 191.035 420.693C189.554 420.693 188.422 420.063 187.639 418.802C186.856 417.541 186.465 415.719 186.465 413.336C186.465 410.967 186.856 409.152 187.639 407.891C188.422 406.63 189.554 406 191.035 406ZM187.953 413.336C187.953 415.026 188.107 416.35 188.415 417.306L193.068 408.099C192.579 407.448 191.901 407.122 191.035 407.122C190.071 407.122 189.316 407.635 188.771 408.66C188.226 409.672 187.953 411.23 187.953 413.336ZM191.035 419.55C192.013 419.55 192.775 419.044 193.32 418.033C193.865 417.008 194.137 415.442 194.137 413.336C194.137 411.549 193.963 410.163 193.613 409.18L188.96 418.469C189.463 419.19 190.154 419.55 191.035 419.55Z" fill="url(#paint0_linear_175_198)" fill-opacity="0.6"/>
<path d="M192.293 443.135H195.374V444.236H187.387V443.135H190.951V431.455L187.555 433.471L186.968 432.536L191.161 429.959H192.293V443.135Z" fill="url(#paint1_linear_175_198)" fill-opacity="0.6"/>
<path d="M191.035 453.502C192.53 453.502 193.662 454.133 194.431 455.393C195.213 456.64 195.605 458.455 195.605 460.838C195.605 463.221 195.213 465.043 194.431 466.304C193.662 467.565 192.53 468.195 191.035 468.195C189.554 468.195 188.422 467.565 187.639 466.304C186.856 465.043 186.465 463.221 186.465 460.838C186.465 458.469 186.856 456.654 187.639 455.393C188.422 454.133 189.554 453.502 191.035 453.502ZM187.953 460.838C187.953 462.529 188.107 463.852 188.415 464.808L193.068 455.601C192.579 454.95 191.901 454.624 191.035 454.624C190.071 454.624 189.316 455.137 188.771 456.162C188.226 457.174 187.953 458.732 187.953 460.838ZM191.035 467.052C192.013 467.052 192.775 466.546 193.32 465.535C193.865 464.51 194.137 462.944 194.137 460.838C194.137 459.051 193.963 457.665 193.613 456.682L188.96 465.971C189.463 466.692 190.154 467.052 191.035 467.052Z" fill="url(#paint2_linear_175_198)" fill-opacity="0.6"/>
<path d="M192.293 490.637H195.374V491.738H187.387V490.637H190.951V478.957L187.555 480.973L186.968 480.038L191.161 477.461H192.293V490.637Z" fill="url(#paint3_linear_175_198)" fill-opacity="0.6"/>
<path d="M192.293 514.388H195.374V515.489H187.387V514.388H190.951V502.708L187.555 504.724L186.968 503.789L191.161 501.212H192.293V514.388Z" fill="url(#paint4_linear_175_198)" fill-opacity="0.6"/>
<path d="M191.035 524.755C192.53 524.755 193.662 525.386 194.431 526.646C195.213 527.893 195.605 529.708 195.605 532.091C195.605 534.474 195.213 536.296 194.431 537.557C193.662 538.818 192.53 539.448 191.035 539.448C189.554 539.448 188.422 538.818 187.639 537.557C186.856 536.296 186.465 534.474 186.465 532.091C186.465 529.722 186.856 527.907 187.639 526.646C188.422 525.386 189.554 524.755 191.035 524.755ZM187.953 532.091C187.953 533.782 188.107 535.105 188.415 536.061L193.068 526.854C192.579 526.203 191.901 525.878 191.035 525.878C190.071 525.878 189.316 526.39 188.771 527.415C188.226 528.427 187.953 529.985 187.953 532.091ZM191.035 538.305C192.013 538.305 192.775 537.8 193.32 536.788C193.865 535.763 194.137 534.197 194.137 532.091C194.137 530.304 193.963 528.919 193.613 527.935L188.96 537.225C189.463 537.945 190.154 538.305 191.035 538.305Z" fill="url(#paint5_linear_175_198)" fill-opacity="0.6"/>
<path d="M192.293 561.89H195.374V562.992H187.387V561.89H190.951V550.21L187.555 552.226L186.968 551.291L191.161 548.714H192.293V561.89Z" fill="url(#paint6_linear_175_198)" fill-opacity="0.6"/>
<path d="M191.035 572.257C192.53 572.257 193.662 572.888 194.431 574.149C195.213 575.396 195.605 577.211 195.605 579.594C195.605 581.977 195.213 583.798 194.431 585.059C193.662 586.32 192.53 586.95 191.035 586.95C189.554 586.95 188.422 586.32 187.639 585.059C186.856 583.798 186.465 581.977 186.465 579.594C186.465 577.224 186.856 575.409 187.639 574.149C188.422 572.888 189.554 572.257 191.035 572.257ZM187.953 579.594C187.953 581.284 188.107 582.607 188.415 583.563L193.068 574.356C192.579 573.705 191.901 573.38 191.035 573.38C190.071 573.38 189.316 573.892 188.771 574.918C188.226 575.929 187.953 577.488 187.953 579.594ZM191.035 585.807C192.013 585.807 192.775 585.302 193.32 584.29C193.865 583.265 194.137 581.699 194.137 579.594C194.137 577.806 193.963 576.421 193.613 575.437L188.96 584.727C189.463 585.447 190.154 585.807 191.035 585.807Z" fill="url(#paint7_linear_175_198)" fill-opacity="0.6"/>
<path d="M191.035 596.008C192.53 596.008 193.662 596.639 194.431 597.9C195.213 599.147 195.605 600.962 195.605 603.345C195.605 605.728 195.213 607.549 194.431 608.81C193.662 610.071 192.53 610.701 191.035 610.701C189.554 610.701 188.422 610.071 187.639 608.81C186.856 607.549 186.465 605.728 186.465 603.345C186.465 600.975 186.856 599.16 187.639 597.9C188.422 596.639 189.554 596.008 191.035 596.008ZM187.953 603.345C187.953 605.035 188.107 606.358 188.415 607.314L193.068 598.107C192.579 597.456 191.901 597.131 191.035 597.131C190.071 597.131 189.316 597.643 188.771 598.669C188.226 599.68 187.953 601.239 187.953 603.345ZM191.035 609.558C192.013 609.558 192.775 609.053 193.32 608.041C193.865 607.016 194.137 605.451 194.137 603.345C194.137 601.557 193.963 600.172 193.613 599.188L188.96 608.478C189.463 609.198 190.154 609.558 191.035 609.558Z" fill="url(#paint8_linear_175_198)" fill-opacity="0.6"/>
<path d="M192.293 633.143H195.374V634.245H187.387V633.143H190.951V621.464L187.555 623.48L186.968 622.544L191.161 619.967H192.293V633.143Z" fill="url(#paint9_linear_175_198)" fill-opacity="0.6"/>
<path d="M191.035 643.511C192.53 643.511 193.662 644.141 194.431 645.402C195.213 646.649 195.605 648.464 195.605 650.847C195.605 653.23 195.213 655.052 194.431 656.312C193.662 657.573 192.53 658.204 191.035 658.204C189.554 658.204 188.422 657.573 187.639 656.312C186.856 655.052 186.465 653.23 186.465 650.847C186.465 648.478 186.856 646.663 187.639 645.402C188.422 644.141 189.554 643.511 191.035 643.511ZM187.953 650.847C187.953 652.537 188.107 653.86 188.415 654.816L193.068 645.61C192.579 644.958 191.901 644.633 191.035 644.633C190.071 644.633 189.316 645.145 188.771 646.171C188.226 647.182 187.953 648.741 187.953 650.847ZM191.035 657.061C192.013 657.061 192.775 656.555 193.32 655.543C193.865 654.518 194.137 652.953 194.137 650.847C194.137 649.059 193.963 647.674 193.613 646.69L188.96 655.98C189.463 656.7 190.154 657.061 191.035 657.061Z" fill="url(#paint10_linear_175_198)" fill-opacity="0.6"/>
<path d="M192.293 680.645H195.374V681.747H187.387V680.645H190.951V668.966L187.555 670.982L186.968 670.046L191.161 667.469H192.293V680.645Z" fill="url(#paint11_linear_175_198)" fill-opacity="0.6"/>
<path d="M192.293 704.396H195.374V705.498H187.387V704.396H190.951V692.717L187.555 694.733L186.968 693.798L191.161 691.221H192.293V704.396Z" fill="url(#paint12_linear_175_198)" fill-opacity="0.6"/>
<path d="M229.965 453.502C231.46 453.502 232.592 454.133 233.361 455.393C234.144 456.64 234.535 458.455 234.535 460.838C234.535 463.221 234.144 465.043 233.361 466.304C232.592 467.565 231.46 468.195 229.965 468.195C228.484 468.195 227.352 467.565 226.569 466.304C225.787 465.043 225.395 463.221 225.395 460.838C225.395 458.469 225.787 456.654 226.569 455.393C227.352 454.133 228.484 453.502 229.965 453.502ZM226.884 460.838C226.884 462.529 227.037 463.852 227.345 464.808L231.998 455.601C231.509 454.95 230.832 454.624 229.965 454.624C229.001 454.624 228.246 455.137 227.701 456.162C227.156 457.174 226.884 458.732 226.884 460.838ZM229.965 467.052C230.943 467.052 231.705 466.546 232.25 465.535C232.795 464.51 233.068 462.944 233.068 460.838C233.068 459.051 232.893 457.665 232.543 456.682L227.89 465.971C228.393 466.692 229.085 467.052 229.965 467.052Z" fill="url(#paint13_linear_175_198)" fill-opacity="0.6"/>
<path d="M231.223 490.637H234.304V491.738H226.318V490.637H229.881V478.957L226.485 480.973L225.898 480.038L230.091 477.461H231.223V490.637Z" fill="url(#paint14_linear_175_198)" fill-opacity="0.6"/>
<path d="M229.965 501.004C231.46 501.004 232.592 501.635 233.361 502.895C234.144 504.142 234.535 505.957 234.535 508.34C234.535 510.723 234.144 512.545 233.361 513.806C232.592 515.067 231.46 515.697 229.965 515.697C228.484 515.697 227.352 515.067 226.569 513.806C225.787 512.545 225.395 510.723 225.395 508.34C225.395 505.971 225.787 504.156 226.569 502.895C227.352 501.635 228.484 501.004 229.965 501.004ZM226.884 508.34C226.884 510.031 227.037 511.354 227.345 512.31L231.998 503.103C231.509 502.452 230.832 502.126 229.965 502.126C229.001 502.126 228.246 502.639 227.701 503.664C227.156 504.676 226.884 506.234 226.884 508.34ZM229.965 514.554C230.943 514.554 231.705 514.049 232.25 513.037C232.795 512.012 233.068 510.446 233.068 508.34C233.068 506.553 232.893 505.168 232.543 504.184L227.89 513.474C228.393 514.194 229.085 514.554 229.965 514.554Z" fill="url(#paint15_linear_175_198)" fill-opacity="0.6"/>
<path d="M229.965 524.755C231.46 524.755 232.592 525.386 233.361 526.646C234.144 527.893 234.535 529.708 234.535 532.091C234.535 534.474 234.144 536.296 233.361 537.557C232.592 538.818 231.46 539.448 229.965 539.448C228.484 539.448 227.352 538.818 226.569 537.557C225.787 536.296 225.395 534.474 225.395 532.091C225.395 529.722 225.787 527.907 226.569 526.646C227.352 525.386 228.484 524.755 229.965 524.755ZM226.884 532.091C226.884 533.782 227.037 535.105 227.345 536.061L231.998 526.854C231.509 526.203 230.832 525.878 229.965 525.878C229.001 525.878 228.246 526.39 227.701 527.415C227.156 528.427 226.884 529.985 226.884 532.091ZM229.965 538.305C230.943 538.305 231.705 537.8 232.25 536.788C232.795 535.763 233.068 534.197 233.068 532.091C233.068 530.304 232.893 528.919 232.543 527.935L227.89 537.225C228.393 537.945 229.085 538.305 229.965 538.305Z" fill="url(#paint16_linear_175_198)" fill-opacity="0.6"/>
<path d="M231.223 561.89H234.304V562.992H226.318V561.89H229.881V550.21L226.485 552.226L225.898 551.291L230.091 548.714H231.223V561.89Z" fill="url(#paint17_linear_175_198)" fill-opacity="0.6"/>
<path d="M229.965 572.257C231.46 572.257 232.592 572.888 233.361 574.149C234.144 575.396 234.535 577.211 234.535 579.594C234.535 581.977 234.144 583.798 233.361 585.059C232.592 586.32 231.46 586.95 229.965 586.95C228.484 586.95 227.352 586.32 226.569 585.059C225.787 583.798 225.395 581.977 225.395 579.594C225.395 577.224 225.787 575.409 226.569 574.149C227.352 572.888 228.484 572.257 229.965 572.257ZM226.884 579.594C226.884 581.284 227.037 582.607 227.345 583.563L231.998 574.356C231.509 573.705 230.832 573.38 229.965 573.38C229.001 573.38 228.246 573.892 227.701 574.918C227.156 575.929 226.884 577.488 226.884 579.594ZM229.965 585.807C230.943 585.807 231.705 585.302 232.25 584.29C232.795 583.265 233.068 581.699 233.068 579.594C233.068 577.806 232.893 576.421 232.543 575.437L227.89 584.727C228.393 585.447 229.085 585.807 229.965 585.807Z" fill="url(#paint18_linear_175_198)" fill-opacity="0.6"/>
<path d="M231.223 609.392H234.304V610.494H226.318V609.392H229.881V597.713L226.485 599.728L225.898 598.793L230.091 596.216H231.223V609.392Z" fill="url(#paint19_linear_175_198)" fill-opacity="0.6"/>
<path d="M229.965 619.76C231.46 619.76 232.592 620.39 233.361 621.651C234.144 622.898 234.535 624.713 234.535 627.096C234.535 629.479 234.144 631.301 233.361 632.561C232.592 633.822 231.46 634.453 229.965 634.453C228.484 634.453 227.352 633.822 226.569 632.561C225.787 631.301 225.395 629.479 225.395 627.096C225.395 624.726 225.787 622.911 226.569 621.651C227.352 620.39 228.484 619.76 229.965 619.76ZM226.884 627.096C226.884 628.786 227.037 630.109 227.345 631.065L231.998 621.859C231.509 621.207 230.832 620.882 229.965 620.882C229.001 620.882 228.246 621.394 227.701 622.42C227.156 623.431 226.884 624.99 226.884 627.096ZM229.965 633.31C230.943 633.31 231.705 632.804 232.25 631.792C232.795 630.767 233.068 629.202 233.068 627.096C233.068 625.308 232.893 623.923 232.543 622.939L227.89 632.229C228.393 632.949 229.085 633.31 229.965 633.31Z" fill="url(#paint20_linear_175_198)" fill-opacity="0.6"/>
<path d="M229.965 643.511C231.46 643.511 232.592 644.141 233.361 645.402C234.144 646.649 234.535 648.464 234.535 650.847C234.535 653.23 234.144 655.052 233.361 656.312C232.592 657.573 231.46 658.204 229.965 658.204C228.484 658.204 227.352 657.573 226.569 656.312C225.787 655.052 225.395 653.23 225.395 650.847C225.395 648.478 225.787 646.663 226.569 645.402C227.352 644.141 228.484 643.511 229.965 643.511ZM226.884 650.847C226.884 652.537 227.037 653.86 227.345 654.816L231.998 645.61C231.509 644.958 230.832 644.633 229.965 644.633C229.001 644.633 228.246 645.145 227.701 646.171C227.156 647.182 226.884 648.741 226.884 650.847ZM229.965 657.061C230.943 657.061 231.705 656.555 232.25 655.543C232.795 654.518 233.068 652.953 233.068 650.847C233.068 649.059 232.893 647.674 232.543 646.69L227.89 655.98C228.393 656.7 229.085 657.061 229.965 657.061Z" fill="url(#paint21_linear_175_198)" fill-opacity="0.6"/>
<path d="M231.223 680.645H234.304V681.747H226.318V680.645H229.881V668.966L226.485 670.982L225.898 670.046L230.091 667.469H231.223V680.645Z" fill="url(#paint22_linear_175_198)" fill-opacity="0.6"/>
<path d="M229.965 691.013C231.46 691.013 232.592 691.643 233.361 692.904C234.144 694.151 234.535 695.966 234.535 698.349C234.535 700.732 234.144 702.554 233.361 703.815C232.592 705.075 231.46 705.706 229.965 705.706C228.484 705.706 227.352 705.075 226.569 703.815C225.787 702.554 225.395 700.732 225.395 698.349C225.395 695.98 225.787 694.165 226.569 692.904C227.352 691.643 228.484 691.013 229.965 691.013ZM226.884 698.349C226.884 700.039 227.037 701.362 227.345 702.318L231.998 693.112C231.509 692.461 230.832 692.135 229.965 692.135C229.001 692.135 228.246 692.648 227.701 693.673C227.156 694.684 226.884 696.243 226.884 698.349ZM229.965 704.563C230.943 704.563 231.705 704.057 232.25 703.046C232.795 702.02 233.068 700.455 233.068 698.349C233.068 696.562 232.893 695.176 232.543 694.192L227.89 703.482C228.393 704.202 229.085 704.563 229.965 704.563Z" fill="url(#paint23_linear_175_198)" fill-opacity="0.6"/>
<path d="M231.223 728.148H234.304V729.249H226.318V728.148H229.881V716.468L226.485 718.484L225.898 717.549L230.091 714.972H231.223V728.148Z" fill="url(#paint24_linear_175_198)" fill-opacity="0.6"/>
<path d="M231.223 751.899H234.304V753H226.318V751.899H229.881V740.219L226.485 742.235L225.898 741.3L230.091 738.723H231.223V751.899Z" fill="url(#paint25_linear_175_198)" fill-opacity="0.6"/>
<path d="M171.57 477.253C173.065 477.253 174.197 477.884 174.966 479.144C175.748 480.391 176.14 482.206 176.14 484.589C176.14 486.972 175.748 488.794 174.966 490.055C174.197 491.316 173.065 491.946 171.57 491.946C170.088 491.946 168.956 491.316 168.174 490.055C167.391 488.794 167 486.972 167 484.589C167 482.22 167.391 480.405 168.174 479.144C168.956 477.884 170.088 477.253 171.57 477.253ZM168.488 484.589C168.488 486.28 168.642 487.603 168.95 488.559L173.603 479.352C173.114 478.701 172.436 478.375 171.57 478.375C170.606 478.375 169.851 478.888 169.306 479.913C168.761 480.925 168.488 482.483 168.488 484.589ZM171.57 490.803C172.548 490.803 173.31 490.297 173.855 489.286C174.4 488.261 174.672 486.695 174.672 484.589C174.672 482.802 174.498 481.417 174.148 480.433L169.495 489.722C169.998 490.443 170.689 490.803 171.57 490.803Z" fill="url(#paint26_linear_175_198)" fill-opacity="0.6"/>
<path d="M171.57 501.004C173.065 501.004 174.197 501.635 174.966 502.895C175.748 504.142 176.14 505.957 176.14 508.34C176.14 510.723 175.748 512.545 174.966 513.806C174.197 515.067 173.065 515.697 171.57 515.697C170.088 515.697 168.956 515.067 168.174 513.806C167.391 512.545 167 510.723 167 508.34C167 505.971 167.391 504.156 168.174 502.895C168.956 501.635 170.088 501.004 171.57 501.004ZM168.488 508.34C168.488 510.031 168.642 511.354 168.95 512.31L173.603 503.103C173.114 502.452 172.436 502.126 171.57 502.126C170.606 502.126 169.851 502.639 169.306 503.664C168.761 504.676 168.488 506.234 168.488 508.34ZM171.57 514.554C172.548 514.554 173.31 514.049 173.855 513.037C174.4 512.012 174.672 510.446 174.672 508.34C174.672 506.553 174.498 505.168 174.148 504.184L169.495 513.474C169.998 514.194 170.689 514.554 171.57 514.554Z" fill="url(#paint27_linear_175_198)" fill-opacity="0.6"/>
<path d="M172.828 538.139H175.909V539.24H167.922V538.139H171.486V526.459L168.09 528.475L167.503 527.54L171.696 524.963H172.828V538.139Z" fill="url(#paint28_linear_175_198)" fill-opacity="0.6"/>
<path d="M171.57 548.506C173.065 548.506 174.197 549.137 174.966 550.398C175.748 551.644 176.14 553.459 176.14 555.842C176.14 558.225 175.748 560.047 174.966 561.308C174.197 562.569 173.065 563.199 171.57 563.199C170.088 563.199 168.956 562.569 168.174 561.308C167.391 560.047 167 558.225 167 555.842C167 553.473 167.391 551.658 168.174 550.398C168.956 549.137 170.088 548.506 171.57 548.506ZM168.488 555.842C168.488 557.533 168.642 558.856 168.95 559.812L173.603 550.605C173.114 549.954 172.436 549.629 171.57 549.629C170.606 549.629 169.851 550.141 169.306 551.166C168.761 552.178 168.488 553.737 168.488 555.842ZM171.57 562.056C172.548 562.056 173.31 561.551 173.855 560.539C174.4 559.514 174.672 557.948 174.672 555.842C174.672 554.055 174.498 552.67 174.148 551.686L169.495 560.976C169.998 561.696 170.689 562.056 171.57 562.056Z" fill="url(#paint29_linear_175_198)" fill-opacity="0.6"/>
<path d="M172.828 585.641H175.909V586.743H167.922V585.641H171.486V573.962L168.09 575.977L167.503 575.042L171.696 572.465H172.828V585.641Z" fill="url(#paint30_linear_175_198)" fill-opacity="0.6"/>
<path d="M172.828 609.392H175.909V610.494H167.922V609.392H171.486V597.713L168.09 599.728L167.503 598.793L171.696 596.216H172.828V609.392Z" fill="url(#paint31_linear_175_198)" fill-opacity="0.6"/>
<path d="M211.758 443.135H214.839V444.236H206.853V443.135H210.416V431.455L207.02 433.471L206.433 432.536L210.626 429.959H211.758V443.135Z" fill="url(#paint32_linear_175_198)" fill-opacity="0.6"/>
<path d="M210.5 453.502C211.995 453.502 213.127 454.133 213.896 455.393C214.679 456.64 215.07 458.455 215.07 460.838C215.07 463.221 214.679 465.043 213.896 466.304C213.127 467.565 211.995 468.195 210.5 468.195C209.019 468.195 207.887 467.565 207.104 466.304C206.321 465.043 205.93 463.221 205.93 460.838C205.93 458.469 206.321 456.654 207.104 455.393C207.887 454.133 209.019 453.502 210.5 453.502ZM207.419 460.838C207.419 462.529 207.572 463.852 207.88 464.808L212.533 455.601C212.044 454.95 211.366 454.624 210.5 454.624C209.536 454.624 208.781 455.137 208.236 456.162C207.691 457.174 207.419 458.732 207.419 460.838ZM210.5 467.052C211.478 467.052 212.24 466.546 212.785 465.535C213.33 464.51 213.602 462.944 213.602 460.838C213.602 459.051 213.428 457.665 213.078 456.682L208.425 465.971C208.928 466.692 209.62 467.052 210.5 467.052Z" fill="url(#paint33_linear_175_198)" fill-opacity="0.6"/>
<path d="M211.758 490.637H214.839V491.738H206.853V490.637H210.416V478.957L207.02 480.973L206.433 480.038L210.626 477.461H211.758V490.637Z" fill="url(#paint34_linear_175_198)" fill-opacity="0.6"/>
<path d="M211.758 514.388H214.839V515.489H206.853V514.388H210.416V502.708L207.02 504.724L206.433 503.789L210.626 501.212H211.758V514.388Z" fill="url(#paint35_linear_175_198)" fill-opacity="0.6"/>
<path d="M210.5 524.755C211.995 524.755 213.127 525.386 213.896 526.646C214.679 527.893 215.07 529.708 215.07 532.091C215.07 534.474 214.679 536.296 213.896 537.557C213.127 538.818 211.995 539.448 210.5 539.448C209.019 539.448 207.887 538.818 207.104 537.557C206.321 536.296 205.93 534.474 205.93 532.091C205.93 529.722 206.321 527.907 207.104 526.646C207.887 525.386 209.019 524.755 210.5 524.755ZM207.419 532.091C207.419 533.782 207.572 535.105 207.88 536.061L212.533 526.854C212.044 526.203 211.366 525.878 210.5 525.878C209.536 525.878 208.781 526.39 208.236 527.415C207.691 528.427 207.419 529.985 207.419 532.091ZM210.5 538.305C211.478 538.305 212.24 537.8 212.785 536.788C213.33 535.763 213.602 534.197 213.602 532.091C213.602 530.304 213.428 528.919 213.078 527.935L208.425 537.225C208.928 537.945 209.62 538.305 210.5 538.305Z" fill="url(#paint36_linear_175_198)" fill-opacity="0.6"/>
<path d="M211.758 561.89H214.839V562.992H206.853V561.89H210.416V550.21L207.02 552.226L206.433 551.291L210.626 548.714H211.758V561.89Z" fill="url(#paint37_linear_175_198)" fill-opacity="0.6"/>
<path d="M211.758 585.641H214.839V586.743H206.853V585.641H210.416V573.962L207.02 575.977L206.433 575.042L210.626 572.465H211.758V585.641Z" fill="url(#paint38_linear_175_198)" fill-opacity="0.6"/>
<path d="M210.5 596.008C211.995 596.008 213.127 596.639 213.896 597.9C214.679 599.147 215.07 600.962 215.07 603.345C215.07 605.728 214.679 607.549 213.896 608.81C213.127 610.071 211.995 610.701 210.5 610.701C209.019 610.701 207.887 610.071 207.104 608.81C206.321 607.549 205.93 605.728 205.93 603.345C205.93 600.975 206.321 599.16 207.104 597.9C207.887 596.639 209.019 596.008 210.5 596.008ZM207.419 603.345C207.419 605.035 207.572 606.358 207.88 607.314L212.533 598.107C212.044 597.456 211.366 597.131 210.5 597.131C209.536 597.131 208.781 597.643 208.236 598.669C207.691 599.68 207.419 601.239 207.419 603.345ZM210.5 609.558C211.478 609.558 212.24 609.053 212.785 608.041C213.33 607.016 213.602 605.451 213.602 603.345C213.602 601.557 213.428 600.172 213.078 599.188L208.425 608.478C208.928 609.198 209.62 609.558 210.5 609.558Z" fill="url(#paint39_linear_175_198)" fill-opacity="0.6"/>
<path d="M211.758 633.143H214.839V634.245H206.853V633.143H210.416V621.464L207.02 623.48L206.433 622.544L210.626 619.967H211.758V633.143Z" fill="url(#paint40_linear_175_198)" fill-opacity="0.6"/>
<path d="M210.5 643.511C211.995 643.511 213.127 644.141 213.896 645.402C214.679 646.649 215.07 648.464 215.07 650.847C215.07 653.23 214.679 655.052 213.896 656.312C213.127 657.573 211.995 658.204 210.5 658.204C209.019 658.204 207.887 657.573 207.104 656.312C206.321 655.052 205.93 653.23 205.93 650.847C205.93 648.478 206.321 646.663 207.104 645.402C207.887 644.141 209.019 643.511 210.5 643.511ZM207.419 650.847C207.419 652.537 207.572 653.86 207.88 654.816L212.533 645.61C212.044 644.958 211.366 644.633 210.5 644.633C209.536 644.633 208.781 645.145 208.236 646.171C207.691 647.182 207.419 648.741 207.419 650.847ZM210.5 657.061C211.478 657.061 212.24 656.555 212.785 655.543C213.33 654.518 213.602 652.953 213.602 650.847C213.602 649.059 213.428 647.674 213.078 646.69L208.425 655.98C208.928 656.7 209.62 657.061 210.5 657.061Z" fill="url(#paint41_linear_175_198)" fill-opacity="0.6"/>
<path d="M249.43 429.751C250.926 429.751 252.057 430.381 252.826 431.642C253.609 432.889 254 434.704 254 437.087C254 439.47 253.609 441.292 252.826 442.553C252.057 443.814 250.926 444.444 249.43 444.444C247.949 444.444 246.817 443.814 246.034 442.553C245.252 441.292 244.86 439.47 244.86 437.087C244.86 434.718 245.252 432.903 246.034 431.642C246.817 430.381 247.949 429.751 249.43 429.751ZM246.349 437.087C246.349 438.777 246.502 440.101 246.81 441.057L251.464 431.85C250.974 431.199 250.297 430.873 249.43 430.873C248.466 430.873 247.711 431.386 247.166 432.411C246.621 433.423 246.349 434.981 246.349 437.087ZM249.43 443.301C250.408 443.301 251.17 442.795 251.715 441.784C252.26 440.759 252.533 439.193 252.533 437.087C252.533 435.3 252.358 433.914 252.009 432.931L247.355 442.22C247.858 442.941 248.55 443.301 249.43 443.301Z" fill="url(#paint42_linear_175_198)" fill-opacity="0.6"/>
<path d="M250.688 466.886H253.769V467.987H245.783V466.886H249.346V455.206L245.95 457.222L245.363 456.287L249.556 453.71H250.688V466.886Z" fill="url(#paint43_linear_175_198)" fill-opacity="0.6"/>
<path d="M250.688 490.637H253.769V491.738H245.783V490.637H249.346V478.957L245.95 480.973L245.363 480.038L249.556 477.461H250.688V490.637Z" fill="url(#paint44_linear_175_198)" fill-opacity="0.6"/>
<path d="M249.43 501.004C250.926 501.004 252.057 501.635 252.826 502.895C253.609 504.142 254 505.957 254 508.34C254 510.723 253.609 512.545 252.826 513.806C252.057 515.067 250.926 515.697 249.43 515.697C247.949 515.697 246.817 515.067 246.034 513.806C245.252 512.545 244.86 510.723 244.86 508.34C244.86 505.971 245.252 504.156 246.034 502.895C246.817 501.635 247.949 501.004 249.43 501.004ZM246.349 508.34C246.349 510.031 246.502 511.354 246.81 512.31L251.464 503.103C250.974 502.452 250.297 502.126 249.43 502.126C248.466 502.126 247.711 502.639 247.166 503.664C246.621 504.676 246.349 506.234 246.349 508.34ZM249.43 514.554C250.408 514.554 251.17 514.049 251.715 513.037C252.26 512.012 252.533 510.446 252.533 508.34C252.533 506.553 252.358 505.168 252.009 504.184L247.355 513.474C247.858 514.194 248.55 514.554 249.43 514.554Z" fill="url(#paint45_linear_175_198)" fill-opacity="0.6"/>
<path d="M249.43 524.755C250.926 524.755 252.057 525.386 252.826 526.646C253.609 527.893 254 529.708 254 532.091C254 534.474 253.609 536.296 252.826 537.557C252.057 538.818 250.926 539.448 249.43 539.448C247.949 539.448 246.817 538.818 246.034 537.557C245.252 536.296 244.86 534.474 244.86 532.091C244.86 529.722 245.252 527.907 246.034 526.646C246.817 525.386 247.949 524.755 249.43 524.755ZM246.349 532.091C246.349 533.782 246.502 535.105 246.81 536.061L251.464 526.854C250.974 526.203 250.297 525.878 249.43 525.878C248.466 525.878 247.711 526.39 247.166 527.415C246.621 528.427 246.349 529.985 246.349 532.091ZM249.43 538.305C250.408 538.305 251.17 537.8 251.715 536.788C252.26 535.763 252.533 534.197 252.533 532.091C252.533 530.304 252.358 528.919 252.009 527.935L247.355 537.225C247.858 537.945 248.55 538.305 249.43 538.305Z" fill="url(#paint46_linear_175_198)" fill-opacity="0.6"/>
<defs>
<filter id="filter0_f_175_198" x="-400.19" y="-580.19" width="2141.38" height="1500.38" filterUnits="userSpaceOnUse" color-interpolation-filters="sRGB">
<feFlood flood-opacity="0" result="BackgroundImageFix"/>
<feBlend mode="normal" in="SourceGraphic" in2="BackgroundImageFix" result="shape"/>
<feGaussianBlur stdDeviation="200.095" result="effect1_foregroundBlur_175_198"/>
</filter>
<linearGradient id="paint0_linear_175_198" x1="210.5" y1="406" x2="210.5" y2="717.381" gradientUnits="userSpaceOnUse">
<stop stop-color="#F7DD43"/>
<stop offset="1" stop-color="#F7DD43" stop-opacity="0"/>
</linearGradient>
<linearGradient id="paint1_linear_175_198" x1="210.5" y1="406" x2="210.5" y2="717.381" gradientUnits="userSpaceOnUse">
<stop stop-color="#F7DD43"/>
<stop offset="1" stop-color="#F7DD43" stop-opacity="0"/>
</linearGradient>
<linearGradient id="paint2_linear_175_198" x1="210.5" y1="406" x2="210.5" y2="717.381" gradientUnits="userSpaceOnUse">
<stop stop-color="#F7DD43"/>
<stop offset="1" stop-color="#F7DD43" stop-opacity="0"/>
</linearGradient>
<linearGradient id="paint3_linear_175_198" x1="210.5" y1="406" x2="210.5" y2="717.381" gradientUnits="userSpaceOnUse">
<stop stop-color="#F7DD43"/>
<stop offset="1" stop-color="#F7DD43" stop-opacity="0"/>
</linearGradient>
<linearGradient id="paint4_linear_175_198" x1="210.5" y1="406" x2="210.5" y2="717.381" gradientUnits="userSpaceOnUse">
<stop stop-color="#F7DD43"/>
<stop offset="1" stop-color="#F7DD43" stop-opacity="0"/>
</linearGradient>
<linearGradient id="paint5_linear_175_198" x1="210.5" y1="406" x2="210.5" y2="717.381" gradientUnits="userSpaceOnUse">
<stop stop-color="#F7DD43"/>
<stop offset="1" stop-color="#F7DD43" stop-opacity="0"/>
</linearGradient>
<linearGradient id="paint6_linear_175_198" x1="210.5" y1="406" x2="210.5" y2="717.381" gradientUnits="userSpaceOnUse">
<stop stop-color="#F7DD43"/>
<stop offset="1" stop-color="#F7DD43" stop-opacity="0"/>
</linearGradient>
<linearGradient id="paint7_linear_175_198" x1="210.5" y1="406" x2="210.5" y2="717.381" gradientUnits="userSpaceOnUse">
<stop stop-color="#F7DD43"/>
<stop offset="1" stop-color="#F7DD43" stop-opacity="0"/>
</linearGradient>
<linearGradient id="paint8_linear_175_198" x1="210.5" y1="406" x2="210.5" y2="717.381" gradientUnits="userSpaceOnUse">
<stop stop-color="#F7DD43"/>
<stop offset="1" stop-color="#F7DD43" stop-opacity="0"/>
</linearGradient>
<linearGradient id="paint9_linear_175_198" x1="210.5" y1="406" x2="210.5" y2="717.381" gradientUnits="userSpaceOnUse">
<stop stop-color="#F7DD43"/>
<stop offset="1" stop-color="#F7DD43" stop-opacity="0"/>
</linearGradient>
<linearGradient id="paint10_linear_175_198" x1="210.5" y1="406" x2="210.5" y2="717.381" gradientUnits="userSpaceOnUse">
<stop stop-color="#F7DD43"/>
<stop offset="1" stop-color="#F7DD43" stop-opacity="0"/>
</linearGradient>
<linearGradient id="paint11_linear_175_198" x1="210.5" y1="406" x2="210.5" y2="717.381" gradientUnits="userSpaceOnUse">
<stop stop-color="#F7DD43"/>
<stop offset="1" stop-color="#F7DD43" stop-opacity="0"/>
</linearGradient>
<linearGradient id="paint12_linear_175_198" x1="210.5" y1="406" x2="210.5" y2="717.381" gradientUnits="userSpaceOnUse">
<stop stop-color="#F7DD43"/>
<stop offset="1" stop-color="#F7DD43" stop-opacity="0"/>
</linearGradient>
<linearGradient id="paint13_linear_175_198" x1="210.5" y1="406" x2="210.5" y2="717.381" gradientUnits="userSpaceOnUse">
<stop stop-color="#F7DD43"/>
<stop offset="1" stop-color="#F7DD43" stop-opacity="0"/>
</linearGradient>
<linearGradient id="paint14_linear_175_198" x1="210.5" y1="406" x2="210.5" y2="717.381" gradientUnits="userSpaceOnUse">
<stop stop-color="#F7DD43"/>
<stop offset="1" stop-color="#F7DD43" stop-opacity="0"/>
</linearGradient>
<linearGradient id="paint15_linear_175_198" x1="210.5" y1="406" x2="210.5" y2="717.381" gradientUnits="userSpaceOnUse">
<stop stop-color="#F7DD43"/>
<stop offset="1" stop-color="#F7DD43" stop-opacity="0"/>
</linearGradient>
<linearGradient id="paint16_linear_175_198" x1="210.5" y1="406" x2="210.5" y2="717.381" gradientUnits="userSpaceOnUse">
<stop stop-color="#F7DD43"/>
<stop offset="1" stop-color="#F7DD43" stop-opacity="0"/>
</linearGradient>
<linearGradient id="paint17_linear_175_198" x1="210.5" y1="406" x2="210.5" y2="717.381" gradientUnits="userSpaceOnUse">
<stop stop-color="#F7DD43"/>
<stop offset="1" stop-color="#F7DD43" stop-opacity="0"/>
</linearGradient>
<linearGradient id="paint18_linear_175_198" x1="210.5" y1="406" x2="210.5" y2="717.381" gradientUnits="userSpaceOnUse">
<stop stop-color="#F7DD43"/>
<stop offset="1" stop-color="#F7DD43" stop-opacity="0"/>
</linearGradient>
<linearGradient id="paint19_linear_175_198" x1="210.5" y1="406" x2="210.5" y2="717.381" gradientUnits="userSpaceOnUse">
<stop stop-color="#F7DD43"/>
<stop offset="1" stop-color="#F7DD43" stop-opacity="0"/>
</linearGradient>
<linearGradient id="paint20_linear_175_198" x1="210.5" y1="406" x2="210.5" y2="717.381" gradientUnits="userSpaceOnUse">
<stop stop-color="#F7DD43"/>
<stop offset="1" stop-color="#F7DD43" stop-opacity="0"/>
</linearGradient>
<linearGradient id="paint21_linear_175_198" x1="210.5" y1="406" x2="210.5" y2="717.381" gradientUnits="userSpaceOnUse">
<stop stop-color="#F7DD43"/>
<stop offset="1" stop-color="#F7DD43" stop-opacity="0"/>
</linearGradient>
<linearGradient id="paint22_linear_175_198" x1="210.5" y1="406" x2="210.5" y2="717.381" gradientUnits="userSpaceOnUse">
<stop stop-color="#F7DD43"/>
<stop offset="1" stop-color="#F7DD43" stop-opacity="0"/>
</linearGradient>
<linearGradient id="paint23_linear_175_198" x1="210.5" y1="406" x2="210.5" y2="717.381" gradientUnits="userSpaceOnUse">
<stop stop-color="#F7DD43"/>
<stop offset="1" stop-color="#F7DD43" stop-opacity="0"/>
</linearGradient>
<linearGradient id="paint24_linear_175_198" x1="210.5" y1="406" x2="210.5" y2="717.381" gradientUnits="userSpaceOnUse">
<stop stop-color="#F7DD43"/>
<stop offset="1" stop-color="#F7DD43" stop-opacity="0"/>
</linearGradient>
<linearGradient id="paint25_linear_175_198" x1="210.5" y1="406" x2="210.5" y2="717.381" gradientUnits="userSpaceOnUse">
<stop stop-color="#F7DD43"/>
<stop offset="1" stop-color="#F7DD43" stop-opacity="0"/>
</linearGradient>
<linearGradient id="paint26_linear_175_198" x1="210.5" y1="406" x2="210.5" y2="717.381" gradientUnits="userSpaceOnUse">
<stop stop-color="#F7DD43"/>
<stop offset="1" stop-color="#F7DD43" stop-opacity="0"/>
</linearGradient>
<linearGradient id="paint27_linear_175_198" x1="210.5" y1="406" x2="210.5" y2="717.381" gradientUnits="userSpaceOnUse">
<stop stop-color="#F7DD43"/>
<stop offset="1" stop-color="#F7DD43" stop-opacity="0"/>
</linearGradient>
<linearGradient id="paint28_linear_175_198" x1="210.5" y1="406" x2="210.5" y2="717.381" gradientUnits="userSpaceOnUse">
<stop stop-color="#F7DD43"/>
<stop offset="1" stop-color="#F7DD43" stop-opacity="0"/>
</linearGradient>
<linearGradient id="paint29_linear_175_198" x1="210.5" y1="406" x2="210.5" y2="717.381" gradientUnits="userSpaceOnUse">
<stop stop-color="#F7DD43"/>
<stop offset="1" stop-color="#F7DD43" stop-opacity="0"/>
</linearGradient>
<linearGradient id="paint30_linear_175_198" x1="210.5" y1="406" x2="210.5" y2="717.381" gradientUnits="userSpaceOnUse">
<stop stop-color="#F7DD43"/>
<stop offset="1" stop-color="#F7DD43" stop-opacity="0"/>
</linearGradient>
<linearGradient id="paint31_linear_175_198" x1="210.5" y1="406" x2="210.5" y2="717.381" gradientUnits="userSpaceOnUse">
<stop stop-color="#F7DD43"/>
<stop offset="1" stop-color="#F7DD43" stop-opacity="0"/>
</linearGradient>
<linearGradient id="paint32_linear_175_198" x1="210.5" y1="406" x2="210.5" y2="717.381" gradientUnits="userSpaceOnUse">
<stop stop-color="#F7DD43"/>
<stop offset="1" stop-color="#F7DD43" stop-opacity="0"/>
</linearGradient>
<linearGradient id="paint33_linear_175_198" x1="210.5" y1="406" x2="210.5" y2="717.381" gradientUnits="userSpaceOnUse">
<stop stop-color="#F7DD43"/>
<stop offset="1" stop-color="#F7DD43" stop-opacity="0"/>
</linearGradient>
<linearGradient id="paint34_linear_175_198" x1="210.5" y1="406" x2="210.5" y2="717.381" gradientUnits="userSpaceOnUse">
<stop stop-color="#F7DD43"/>
<stop offset="1" stop-color="#F7DD43" stop-opacity="0"/>
</linearGradient>
<linearGradient id="paint35_linear_175_198" x1="210.5" y1="406" x2="210.5" y2="717.381" gradientUnits="userSpaceOnUse">
<stop stop-color="#F7DD43"/>
<stop offset="1" stop-color="#F7DD43" stop-opacity="0"/>
</linearGradient>
<linearGradient id="paint36_linear_175_198" x1="210.5" y1="406" x2="210.5" y2="717.381" gradientUnits="userSpaceOnUse">
<stop stop-color="#F7DD43"/>
<stop offset="1" stop-color="#F7DD43" stop-opacity="0"/>
</linearGradient>
<linearGradient id="paint37_linear_175_198" x1="210.5" y1="406" x2="210.5" y2="717.381" gradientUnits="userSpaceOnUse">
<stop stop-color="#F7DD43"/>
<stop offset="1" stop-color="#F7DD43" stop-opacity="0"/>
</linearGradient>
<linearGradient id="paint38_linear_175_198" x1="210.5" y1="406" x2="210.5" y2="717.381" gradientUnits="userSpaceOnUse">
<stop stop-color="#F7DD43"/>
<stop offset="1" stop-color="#F7DD43" stop-opacity="0"/>
</linearGradient>
<linearGradient id="paint39_linear_175_198" x1="210.5" y1="406" x2="210.5" y2="717.381" gradientUnits="userSpaceOnUse">
<stop stop-color="#F7DD43"/>
<stop offset="1" stop-color="#F7DD43" stop-opacity="0"/>
</linearGradient>
<linearGradient id="paint40_linear_175_198" x1="210.5" y1="406" x2="210.5" y2="717.381" gradientUnits="userSpaceOnUse">
<stop stop-color="#F7DD43"/>
<stop offset="1" stop-color="#F7DD43" stop-opacity="0"/>
</linearGradient>
<linearGradient id="paint41_linear_175_198" x1="210.5" y1="406" x2="210.5" y2="717.381" gradientUnits="userSpaceOnUse">
<stop stop-color="#F7DD43"/>
<stop offset="1" stop-color="#F7DD43" stop-opacity="0"/>
</linearGradient>
<linearGradient id="paint42_linear_175_198" x1="210.5" y1="406" x2="210.5" y2="717.381" gradientUnits="userSpaceOnUse">
<stop stop-color="#F7DD43"/>
<stop offset="1" stop-color="#F7DD43" stop-opacity="0"/>
</linearGradient>
<linearGradient id="paint43_linear_175_198" x1="210.5" y1="406" x2="210.5" y2="717.381" gradientUnits="userSpaceOnUse">
<stop stop-color="#F7DD43"/>
<stop offset="1" stop-color="#F7DD43" stop-opacity="0"/>
</linearGradient>
<linearGradient id="paint44_linear_175_198" x1="210.5" y1="406" x2="210.5" y2="717.381" gradientUnits="userSpaceOnUse">
<stop stop-color="#F7DD43"/>
<stop offset="1" stop-color="#F7DD43" stop-opacity="0"/>
</linearGradient>
<linearGradient id="paint45_linear_175_198" x1="210.5" y1="406" x2="210.5" y2="717.381" gradientUnits="userSpaceOnUse">
<stop stop-color="#F7DD43"/>
<stop offset="1" stop-color="#F7DD43" stop-opacity="0"/>
</linearGradient>
<linearGradient id="paint46_linear_175_198" x1="210.5" y1="406" x2="210.5" y2="717.381" gradientUnits="userSpaceOnUse">
<stop stop-color="#F7DD43"/>
<stop offset="1" stop-color="#F7DD43" stop-opacity="0"/>
</linearGradient>
</defs>
</svg>
